<mxfile host="Electron" agent="Mozilla/5.0 (Windows NT 10.0; Win64; x64) AppleWebKit/537.36 (KHTML, like Gecko) draw.io/26.0.16 Chrome/132.0.6834.196 Electron/34.2.0 Safari/537.36" version="26.0.16">
  <diagram name="Страница — 1" id="KgpnrsMqIwY7Wp8qNeAr">
    <mxGraphModel dx="860" dy="993" grid="1" gridSize="10" guides="1" tooltips="1" connect="1" arrows="1" fold="1" page="1" pageScale="1" pageWidth="827" pageHeight="1169" math="0" shadow="0">
      <root>
        <mxCell id="0" />
        <mxCell id="1" parent="0" />
        <mxCell id="zfcCjAa7BZ9iETOggP2I-103" style="rounded=0;orthogonalLoop=1;jettySize=auto;html=1;exitX=0.5;exitY=0.5;exitDx=0;exitDy=0;exitPerimeter=0;entryX=0;entryY=0.5;entryDx=0;entryDy=0;endArrow=none;startFill=0;" parent="1" source="zfcCjAa7BZ9iETOggP2I-35" target="zfcCjAa7BZ9iETOggP2I-102" edge="1">
          <mxGeometry relative="1" as="geometry" />
        </mxCell>
        <mxCell id="zfcCjAa7BZ9iETOggP2I-104" style="rounded=0;orthogonalLoop=1;jettySize=auto;html=1;exitX=0.5;exitY=0.5;exitDx=0;exitDy=0;exitPerimeter=0;entryX=0;entryY=0.5;entryDx=0;entryDy=0;endArrow=none;startFill=0;" parent="1" source="zfcCjAa7BZ9iETOggP2I-35" target="zfcCjAa7BZ9iETOggP2I-37" edge="1">
          <mxGeometry relative="1" as="geometry" />
        </mxCell>
        <mxCell id="zfcCjAa7BZ9iETOggP2I-35" value="&lt;span style=&quot;background-color: light-dark(#ffffff, var(--ge-dark-color, #121212));&quot;&gt;Тренер&lt;/span&gt;" style="shape=umlActor;verticalLabelPosition=bottom;verticalAlign=top;html=1;outlineConnect=0;" parent="1" vertex="1">
          <mxGeometry x="860" y="350" width="30" height="60" as="geometry" />
        </mxCell>
        <mxCell id="zfcCjAa7BZ9iETOggP2I-56" value="&lt;font style=&quot;font-size: 14px;&quot; face=&quot;Helvetica&quot;&gt;ИС «&lt;span style=&quot;text-align: justify;&quot;&gt;Программа для фитнес-центра по распределению фитнес-расписания&lt;/span&gt;»&amp;nbsp;&lt;/font&gt;" style="shape=umlFrame;whiteSpace=wrap;html=1;pointerEvents=0;recursiveResize=0;container=1;collapsible=0;width=542;height=30;" parent="1" vertex="1">
          <mxGeometry x="928" y="20" width="653" height="510" as="geometry" />
        </mxCell>
        <mxCell id="zfcCjAa7BZ9iETOggP2I-48" value="&lt;span&gt;Добавить нового тренера&lt;/span&gt;" style="ellipse;whiteSpace=wrap;html=1;" parent="zfcCjAa7BZ9iETOggP2I-56" vertex="1">
          <mxGeometry x="21.5" y="150" width="159" height="70" as="geometry" />
        </mxCell>
        <mxCell id="zfcCjAa7BZ9iETOggP2I-51" value="&lt;span&gt;Предоставить&amp;nbsp;&lt;/span&gt;&lt;span style=&quot;background-color: transparent; color: light-dark(rgb(0, 0, 0), rgb(255, 255, 255));&quot;&gt;скидку&amp;nbsp;&lt;/span&gt;&lt;span style=&quot;background-color: transparent; color: light-dark(rgb(0, 0, 0), rgb(255, 255, 255));&quot;&gt;на тренировку&amp;nbsp;&lt;/span&gt;&lt;span style=&quot;background-color: transparent; color: light-dark(rgb(0, 0, 0), rgb(255, 255, 255));&quot;&gt;клиенту&lt;/span&gt;" style="ellipse;whiteSpace=wrap;html=1;" parent="zfcCjAa7BZ9iETOggP2I-56" vertex="1">
          <mxGeometry x="29" y="230" width="159" height="70" as="geometry" />
        </mxCell>
        <mxCell id="zfcCjAa7BZ9iETOggP2I-53" value="&lt;span&gt;&lt;span style=&quot;text-align: justify; color: rgb(0, 0, 0);&quot;&gt;Записать тренера&lt;/span&gt;&lt;span style=&quot;color: light-dark(rgb(0, 0, 0), rgb(255, 255, 255)); text-align: justify;&quot;&gt;&amp;nbsp;на курс обучения&lt;/span&gt;&lt;/span&gt;" style="ellipse;whiteSpace=wrap;html=1;" parent="zfcCjAa7BZ9iETOggP2I-56" vertex="1">
          <mxGeometry x="21.5" y="70" width="159" height="70" as="geometry" />
        </mxCell>
        <mxCell id="zfcCjAa7BZ9iETOggP2I-102" value="Посмотреть&lt;br&gt;список своих текущих клиентов&amp;nbsp;" style="ellipse;whiteSpace=wrap;html=1;" parent="zfcCjAa7BZ9iETOggP2I-56" vertex="1">
          <mxGeometry x="38.5" y="420" width="140" height="70" as="geometry" />
        </mxCell>
        <mxCell id="zfcCjAa7BZ9iETOggP2I-122" style="rounded=0;orthogonalLoop=1;jettySize=auto;html=1;entryX=0.5;entryY=1;entryDx=0;entryDy=0;dashed=1;exitX=0.5;exitY=0;exitDx=0;exitDy=0;" parent="zfcCjAa7BZ9iETOggP2I-56" source="zfcCjAa7BZ9iETOggP2I-162" target="zfcCjAa7BZ9iETOggP2I-161" edge="1">
          <mxGeometry relative="1" as="geometry">
            <mxPoint x="299.5" y="120" as="sourcePoint" />
            <mxPoint x="301.5" y="60" as="targetPoint" />
          </mxGeometry>
        </mxCell>
        <mxCell id="zfcCjAa7BZ9iETOggP2I-125" value="&lt;span style=&quot;background-color: rgb(251, 251, 251);&quot;&gt;includ&lt;/span&gt;" style="edgeLabel;html=1;align=center;verticalAlign=middle;resizable=0;points=[];" parent="zfcCjAa7BZ9iETOggP2I-122" vertex="1" connectable="0">
          <mxGeometry x="-0.0688" y="-1" relative="1" as="geometry">
            <mxPoint as="offset" />
          </mxGeometry>
        </mxCell>
        <mxCell id="zfcCjAa7BZ9iETOggP2I-119" style="edgeStyle=orthogonalEdgeStyle;rounded=0;orthogonalLoop=1;jettySize=auto;html=1;exitX=0.5;exitY=1;exitDx=0;exitDy=0;" parent="zfcCjAa7BZ9iETOggP2I-56" edge="1">
          <mxGeometry relative="1" as="geometry">
            <mxPoint x="299.5" y="170" as="sourcePoint" />
            <mxPoint x="299.5" y="170" as="targetPoint" />
          </mxGeometry>
        </mxCell>
        <mxCell id="zfcCjAa7BZ9iETOggP2I-128" style="rounded=0;orthogonalLoop=1;jettySize=auto;html=1;exitX=0;exitY=0.5;exitDx=0;exitDy=0;entryX=1;entryY=0.5;entryDx=0;entryDy=0;dashed=1;" parent="zfcCjAa7BZ9iETOggP2I-56" source="zfcCjAa7BZ9iETOggP2I-170" target="zfcCjAa7BZ9iETOggP2I-162" edge="1">
          <mxGeometry relative="1" as="geometry">
            <mxPoint x="443.00000000000045" y="217.5000000000001" as="sourcePoint" />
            <mxPoint x="370.0000000000002" y="145" as="targetPoint" />
          </mxGeometry>
        </mxCell>
        <mxCell id="zfcCjAa7BZ9iETOggP2I-129" value="extend" style="edgeLabel;html=1;align=center;verticalAlign=middle;resizable=0;points=[];labelBackgroundColor=default;" parent="zfcCjAa7BZ9iETOggP2I-128" vertex="1" connectable="0">
          <mxGeometry x="-0.277" y="-2" relative="1" as="geometry">
            <mxPoint x="-11" as="offset" />
          </mxGeometry>
        </mxCell>
        <mxCell id="zfcCjAa7BZ9iETOggP2I-136" value="Посмотреть&amp;nbsp;&lt;span style=&quot;text-align: justify;&quot;&gt;сегодняшний перечень&amp;nbsp;&lt;/span&gt;&lt;span style=&quot;text-align: justify;&quot;&gt;индивидуальных занятий&lt;/span&gt;" style="ellipse;whiteSpace=wrap;html=1;" parent="zfcCjAa7BZ9iETOggP2I-56" vertex="1">
          <mxGeometry x="430.5" y="320" width="188.5" height="70" as="geometry" />
        </mxCell>
        <mxCell id="zfcCjAa7BZ9iETOggP2I-37" value="&lt;span style=&quot;color: light-dark(rgb(0, 0, 0), rgb(255, 255, 255)); background-color: transparent;&quot;&gt;Посмотреть&amp;nbsp;&lt;/span&gt;&lt;span style=&quot;color: light-dark(rgb(0, 0, 0), rgb(255, 255, 255)); background-color: transparent;&quot;&gt;новые&lt;/span&gt;&lt;div&gt;&lt;span style=&quot;color: light-dark(rgb(0, 0, 0), rgb(255, 255, 255)); background-color: transparent;&quot;&gt;заявки&amp;nbsp;&lt;/span&gt;&lt;span style=&quot;background-color: transparent; color: light-dark(rgb(0, 0, 0), rgb(255, 255, 255));&quot;&gt;от клиентов&lt;/span&gt;&lt;/div&gt;&lt;div&gt;&lt;span style=&quot;background-color: transparent; color: light-dark(rgb(0, 0, 0), rgb(255, 255, 255));&quot;&gt;и&amp;nbsp;&lt;/span&gt;&lt;span style=&quot;background-color: transparent; color: light-dark(rgb(0, 0, 0), rgb(255, 255, 255));&quot;&gt;их количество&lt;/span&gt;&lt;/div&gt;" style="ellipse;whiteSpace=wrap;html=1;" parent="zfcCjAa7BZ9iETOggP2I-56" vertex="1">
          <mxGeometry x="21.5" y="320" width="157" height="80" as="geometry" />
        </mxCell>
        <mxCell id="zfcCjAa7BZ9iETOggP2I-39" value="Принять заявку" style="ellipse;whiteSpace=wrap;html=1;" parent="zfcCjAa7BZ9iETOggP2I-56" vertex="1">
          <mxGeometry x="250.25" y="310" width="106.5" height="40" as="geometry" />
        </mxCell>
        <mxCell id="zfcCjAa7BZ9iETOggP2I-106" style="rounded=0;orthogonalLoop=1;jettySize=auto;html=1;exitX=0;exitY=0.5;exitDx=0;exitDy=0;entryX=1;entryY=0.5;entryDx=0;entryDy=0;dashed=1;" parent="zfcCjAa7BZ9iETOggP2I-56" source="zfcCjAa7BZ9iETOggP2I-39" target="zfcCjAa7BZ9iETOggP2I-37" edge="1">
          <mxGeometry relative="1" as="geometry" />
        </mxCell>
        <mxCell id="zfcCjAa7BZ9iETOggP2I-110" value="extend" style="edgeLabel;html=1;align=center;verticalAlign=middle;resizable=0;points=[];labelBackgroundColor=default;" parent="zfcCjAa7BZ9iETOggP2I-106" vertex="1" connectable="0">
          <mxGeometry x="-0.277" y="-2" relative="1" as="geometry">
            <mxPoint as="offset" />
          </mxGeometry>
        </mxCell>
        <mxCell id="zfcCjAa7BZ9iETOggP2I-40" value="Отклонить заявку" style="ellipse;whiteSpace=wrap;html=1;" parent="zfcCjAa7BZ9iETOggP2I-56" vertex="1">
          <mxGeometry x="250.25" y="365" width="109" height="40" as="geometry" />
        </mxCell>
        <mxCell id="zfcCjAa7BZ9iETOggP2I-105" style="rounded=0;orthogonalLoop=1;jettySize=auto;html=1;exitX=0;exitY=0.5;exitDx=0;exitDy=0;entryX=1;entryY=0.5;entryDx=0;entryDy=0;dashed=1;" parent="zfcCjAa7BZ9iETOggP2I-56" source="zfcCjAa7BZ9iETOggP2I-40" target="zfcCjAa7BZ9iETOggP2I-37" edge="1">
          <mxGeometry relative="1" as="geometry" />
        </mxCell>
        <mxCell id="zfcCjAa7BZ9iETOggP2I-111" value="extend" style="edgeLabel;html=1;align=center;verticalAlign=middle;resizable=0;points=[];labelBackgroundColor=default;" parent="zfcCjAa7BZ9iETOggP2I-105" vertex="1" connectable="0">
          <mxGeometry x="-0.1761" y="1" relative="1" as="geometry">
            <mxPoint as="offset" />
          </mxGeometry>
        </mxCell>
        <mxCell id="zfcCjAa7BZ9iETOggP2I-100" value="&lt;span&gt;Выставить план&amp;nbsp;&lt;/span&gt;&lt;span style=&quot;background-color: transparent; color: light-dark(rgb(0, 0, 0), rgb(255, 255, 255));&quot;&gt;индивидуальных занятий для клиента&lt;/span&gt;" style="ellipse;whiteSpace=wrap;html=1;" parent="zfcCjAa7BZ9iETOggP2I-56" vertex="1">
          <mxGeometry x="219.5" y="200" width="168" height="72.5" as="geometry" />
        </mxCell>
        <mxCell id="zfcCjAa7BZ9iETOggP2I-108" style="rounded=0;orthogonalLoop=1;jettySize=auto;html=1;entryX=0.5;entryY=1;entryDx=0;entryDy=0;dashed=1;" parent="zfcCjAa7BZ9iETOggP2I-56" source="zfcCjAa7BZ9iETOggP2I-39" target="zfcCjAa7BZ9iETOggP2I-100" edge="1">
          <mxGeometry relative="1" as="geometry" />
        </mxCell>
        <mxCell id="zfcCjAa7BZ9iETOggP2I-115" value="&lt;span&gt;includ&lt;/span&gt;" style="edgeLabel;html=1;align=center;verticalAlign=middle;resizable=0;points=[];labelBackgroundColor=default;" parent="zfcCjAa7BZ9iETOggP2I-108" vertex="1" connectable="0">
          <mxGeometry x="-0.1274" y="-1" relative="1" as="geometry">
            <mxPoint as="offset" />
          </mxGeometry>
        </mxCell>
        <mxCell id="zfcCjAa7BZ9iETOggP2I-99" value="&lt;span&gt;Указать причину отклонения заявки&lt;/span&gt;" style="ellipse;whiteSpace=wrap;html=1;" parent="zfcCjAa7BZ9iETOggP2I-56" vertex="1">
          <mxGeometry x="215.75" y="440" width="181" height="50" as="geometry" />
        </mxCell>
        <mxCell id="zfcCjAa7BZ9iETOggP2I-109" style="rounded=0;orthogonalLoop=1;jettySize=auto;html=1;exitX=0.5;exitY=1;exitDx=0;exitDy=0;entryX=0.5;entryY=0;entryDx=0;entryDy=0;dashed=1;" parent="zfcCjAa7BZ9iETOggP2I-56" source="zfcCjAa7BZ9iETOggP2I-40" target="zfcCjAa7BZ9iETOggP2I-99" edge="1">
          <mxGeometry relative="1" as="geometry">
            <mxPoint x="304.75" y="448" as="targetPoint" />
          </mxGeometry>
        </mxCell>
        <mxCell id="zfcCjAa7BZ9iETOggP2I-114" value="&lt;span style=&quot;&quot;&gt;includ&lt;/span&gt;" style="edgeLabel;html=1;align=center;verticalAlign=middle;resizable=0;points=[];labelBackgroundColor=default;" parent="zfcCjAa7BZ9iETOggP2I-109" vertex="1" connectable="0">
          <mxGeometry x="0.0816" y="-1" relative="1" as="geometry">
            <mxPoint y="-4" as="offset" />
          </mxGeometry>
        </mxCell>
        <mxCell id="zfcCjAa7BZ9iETOggP2I-161" value="Указать цель, которую&lt;div&gt;клиент хочет достигнуть&lt;/div&gt;" style="ellipse;whiteSpace=wrap;html=1;" parent="zfcCjAa7BZ9iETOggP2I-56" vertex="1">
          <mxGeometry x="214.25" y="40" width="184" height="50" as="geometry" />
        </mxCell>
        <mxCell id="zfcCjAa7BZ9iETOggP2I-162" value="Отправить заявку&lt;div&gt;тренеру&lt;/div&gt;" style="ellipse;whiteSpace=wrap;html=1;" parent="zfcCjAa7BZ9iETOggP2I-56" vertex="1">
          <mxGeometry x="236.75" y="130" width="136" height="50" as="geometry" />
        </mxCell>
        <mxCell id="zfcCjAa7BZ9iETOggP2I-163" style="edgeStyle=orthogonalEdgeStyle;rounded=0;orthogonalLoop=1;jettySize=auto;html=1;exitX=0.5;exitY=1;exitDx=0;exitDy=0;" parent="zfcCjAa7BZ9iETOggP2I-56" source="zfcCjAa7BZ9iETOggP2I-162" target="zfcCjAa7BZ9iETOggP2I-162" edge="1">
          <mxGeometry relative="1" as="geometry" />
        </mxCell>
        <mxCell id="zfcCjAa7BZ9iETOggP2I-166" value="Посмотреть список своих&lt;div&gt;заявок с результатом&lt;/div&gt;" style="ellipse;whiteSpace=wrap;html=1;" parent="zfcCjAa7BZ9iETOggP2I-56" vertex="1">
          <mxGeometry x="435.25" y="230" width="179" height="70" as="geometry" />
        </mxCell>
        <mxCell id="zfcCjAa7BZ9iETOggP2I-167" value="&lt;span style=&quot;text-align: justify;&quot;&gt;Посмотреть&amp;nbsp;&lt;/span&gt;&lt;font style=&quot;text-align: justify;&quot;&gt;прогресс&lt;/font&gt;" style="ellipse;whiteSpace=wrap;html=1;" parent="zfcCjAa7BZ9iETOggP2I-56" vertex="1">
          <mxGeometry x="434.25" y="405" width="184.75" height="70" as="geometry" />
        </mxCell>
        <mxCell id="zfcCjAa7BZ9iETOggP2I-169" value="Зарегистрироваться в системе" style="ellipse;whiteSpace=wrap;html=1;" parent="zfcCjAa7BZ9iETOggP2I-56" vertex="1">
          <mxGeometry x="430" y="40" width="189" height="40" as="geometry" />
        </mxCell>
        <mxCell id="zfcCjAa7BZ9iETOggP2I-170" value="Посмотреть список тренеров" style="ellipse;whiteSpace=wrap;html=1;" parent="zfcCjAa7BZ9iETOggP2I-56" vertex="1">
          <mxGeometry x="435.25" y="150" width="179" height="70" as="geometry" />
        </mxCell>
        <mxCell id="Q1F1lCBF1eMoVAc_gZBk-2" value="&lt;font face=&quot;Helvetica&quot;&gt;Авторизироваться в системе&lt;/font&gt;" style="ellipse;whiteSpace=wrap;html=1;" vertex="1" parent="zfcCjAa7BZ9iETOggP2I-56">
          <mxGeometry x="430" y="90" width="189" height="40" as="geometry" />
        </mxCell>
        <mxCell id="zfcCjAa7BZ9iETOggP2I-123" style="rounded=0;orthogonalLoop=1;jettySize=auto;html=1;exitX=0.5;exitY=0.5;exitDx=0;exitDy=0;exitPerimeter=0;endArrow=none;startFill=0;entryX=1;entryY=0.5;entryDx=0;entryDy=0;" parent="1" source="zfcCjAa7BZ9iETOggP2I-81" target="zfcCjAa7BZ9iETOggP2I-169" edge="1">
          <mxGeometry relative="1" as="geometry">
            <mxPoint x="1552" y="170" as="targetPoint" />
          </mxGeometry>
        </mxCell>
        <mxCell id="zfcCjAa7BZ9iETOggP2I-124" style="rounded=0;orthogonalLoop=1;jettySize=auto;html=1;exitX=0.5;exitY=0.5;exitDx=0;exitDy=0;exitPerimeter=0;entryX=1;entryY=0.5;entryDx=0;entryDy=0;endArrow=none;startFill=0;" parent="1" source="zfcCjAa7BZ9iETOggP2I-81" target="zfcCjAa7BZ9iETOggP2I-170" edge="1">
          <mxGeometry relative="1" as="geometry">
            <mxPoint x="1557.9999999999998" y="267.5000000000001" as="targetPoint" />
          </mxGeometry>
        </mxCell>
        <mxCell id="zfcCjAa7BZ9iETOggP2I-131" style="rounded=0;orthogonalLoop=1;jettySize=auto;html=1;exitX=0.5;exitY=0.5;exitDx=0;exitDy=0;exitPerimeter=0;entryX=1;entryY=0.5;entryDx=0;entryDy=0;endArrow=none;startFill=0;" parent="1" source="zfcCjAa7BZ9iETOggP2I-81" target="zfcCjAa7BZ9iETOggP2I-167" edge="1">
          <mxGeometry relative="1" as="geometry">
            <mxPoint x="1530.0000000000002" y="531.25" as="targetPoint" />
          </mxGeometry>
        </mxCell>
        <mxCell id="zfcCjAa7BZ9iETOggP2I-157" style="rounded=0;orthogonalLoop=1;jettySize=auto;html=1;exitX=0.5;exitY=0.5;exitDx=0;exitDy=0;exitPerimeter=0;entryX=1;entryY=0.5;entryDx=0;entryDy=0;endArrow=none;startFill=0;" parent="1" source="zfcCjAa7BZ9iETOggP2I-81" target="zfcCjAa7BZ9iETOggP2I-136" edge="1">
          <mxGeometry relative="1" as="geometry" />
        </mxCell>
        <mxCell id="zfcCjAa7BZ9iETOggP2I-158" style="rounded=0;orthogonalLoop=1;jettySize=auto;html=1;exitX=0.5;exitY=0.5;exitDx=0;exitDy=0;exitPerimeter=0;entryX=1;entryY=0.5;entryDx=0;entryDy=0;endArrow=none;startFill=0;" parent="1" source="zfcCjAa7BZ9iETOggP2I-81" target="zfcCjAa7BZ9iETOggP2I-166" edge="1">
          <mxGeometry relative="1" as="geometry">
            <mxPoint x="1535" y="362.5" as="targetPoint" />
          </mxGeometry>
        </mxCell>
        <mxCell id="Q1F1lCBF1eMoVAc_gZBk-3" style="rounded=0;orthogonalLoop=1;jettySize=auto;html=1;exitX=0.5;exitY=0.5;exitDx=0;exitDy=0;exitPerimeter=0;entryX=1;entryY=0.5;entryDx=0;entryDy=0;endArrow=none;startFill=0;" edge="1" parent="1" source="zfcCjAa7BZ9iETOggP2I-81" target="Q1F1lCBF1eMoVAc_gZBk-2">
          <mxGeometry relative="1" as="geometry" />
        </mxCell>
        <mxCell id="zfcCjAa7BZ9iETOggP2I-81" value="&lt;span style=&quot;background-color: light-dark(#ffffff, var(--ge-dark-color, #121212));&quot;&gt;Клиент&lt;/span&gt;" style="shape=umlActor;verticalLabelPosition=bottom;verticalAlign=top;html=1;outlineConnect=0;" parent="1" vertex="1">
          <mxGeometry x="1610" y="235" width="30" height="60" as="geometry" />
        </mxCell>
        <mxCell id="zfcCjAa7BZ9iETOggP2I-96" style="rounded=0;orthogonalLoop=1;jettySize=auto;html=1;exitX=0.5;exitY=0.5;exitDx=0;exitDy=0;exitPerimeter=0;entryX=0;entryY=0.5;entryDx=0;entryDy=0;endArrow=none;startFill=0;" parent="1" source="zfcCjAa7BZ9iETOggP2I-34" target="zfcCjAa7BZ9iETOggP2I-53" edge="1">
          <mxGeometry relative="1" as="geometry" />
        </mxCell>
        <mxCell id="zfcCjAa7BZ9iETOggP2I-97" style="rounded=0;orthogonalLoop=1;jettySize=auto;html=1;exitX=0.5;exitY=0.5;exitDx=0;exitDy=0;exitPerimeter=0;entryX=0;entryY=0.5;entryDx=0;entryDy=0;endArrow=none;startFill=0;" parent="1" source="zfcCjAa7BZ9iETOggP2I-34" target="zfcCjAa7BZ9iETOggP2I-51" edge="1">
          <mxGeometry relative="1" as="geometry" />
        </mxCell>
        <mxCell id="zfcCjAa7BZ9iETOggP2I-98" style="rounded=0;orthogonalLoop=1;jettySize=auto;html=1;exitX=0.5;exitY=0.5;exitDx=0;exitDy=0;exitPerimeter=0;endArrow=none;startFill=0;entryX=0;entryY=0.5;entryDx=0;entryDy=0;" parent="1" source="zfcCjAa7BZ9iETOggP2I-34" target="zfcCjAa7BZ9iETOggP2I-48" edge="1">
          <mxGeometry relative="1" as="geometry">
            <mxPoint x="948" y="80" as="targetPoint" />
          </mxGeometry>
        </mxCell>
        <mxCell id="zfcCjAa7BZ9iETOggP2I-34" value="&lt;span style=&quot;background-color: light-dark(#ffffff, var(--ge-dark-color, #121212));&quot;&gt;Администратор&lt;/span&gt;" style="shape=umlActor;verticalLabelPosition=bottom;verticalAlign=top;html=1;outlineConnect=0;" parent="1" vertex="1">
          <mxGeometry x="860" y="175" width="30" height="60" as="geometry" />
        </mxCell>
      </root>
    </mxGraphModel>
  </diagram>
</mxfile>
